<?xml version="1.0" encoding="utf-8"?>
<!-- Generator: Adobe Illustrator 23.0.1, SVG Export Plug-In . SVG Version: 6.00 Build 0)  -->
<svg version="1.1" id="Layer_1" xmlns="http://www.w3.org/2000/svg" xmlns:xlink="http://www.w3.org/1999/xlink" x="0px" y="0px"
	 width="123.6px" height="25px" viewBox="0 0 123.6 25" style="enable-background:new 0 0 123.6 25;" xml:space="preserve">
<style type="text/css">
	.st0{fill:#231F20;}
</style>
<title>logo-black</title>
<path class="st0" d="M21.9,18c1.6,1.7,3.8,2.6,6.1,2.6c1.9,0.1,3.8-0.6,5.2-1.9c1.3-1.5,2-3.4,1.9-5.4V0.9c0-0.3-0.3-0.6-0.6-0.6
	l0,0h-3.3c-0.3,0-0.6,0.3-0.6,0.6c0,0,0,0,0,0v12.3c0,2.3-1,3.3-2.7,3.3c-1.2,0-2.4-0.6-3.2-1.5c-0.2-0.2-0.6-0.3-0.9,0c0,0,0,0,0,0
	l-2,2.2C21.6,17.4,21.6,17.8,21.9,18z M37.6,12.7L37.6,12.7c0-4.5,3.6-8.1,8-8.1c0.1,0,0.2,0,0.3,0c4.4-0.1,8.1,3.3,8.3,7.7
	c0,0.1,0,0.1,0,0.2v0.1c0,4.4-3.6,8-8,8c-0.1,0-0.2,0-0.3,0c-4.4,0.1-8.1-3.3-8.3-7.7C37.6,12.8,37.6,12.8,37.6,12.7z M49.9,12.7
	L49.9,12.7c0.1-2.3-1.7-4.2-3.9-4.3c0,0-0.1,0-0.1,0c-2.2,0-4,1.7-4,3.9c0,0.1,0,0.2,0,0.3v0.1c-0.1,2.2,1.7,4.1,3.9,4.2
	c0,0,0.1,0,0.1,0c2.2,0,4-1.7,4-3.9C49.9,12.9,49.9,12.8,49.9,12.7z M70.5,12.7L70.5,12.7c0-4.4,3.1-8.1,7.6-8.1
	c5.1,0,7.5,4,7.5,8.3c0,0.2,0,0.4,0,0.6c0,0.3-0.3,0.6-0.6,0.6H74.8c0.3,1.8,1.9,3.1,3.8,3c1.2,0,2.4-0.4,3.3-1.2
	c0.2-0.2,0.6-0.2,0.8,0l1.6,1.4c0.2,0.2,0.3,0.6,0,0.9c0,0,0,0,0,0c-3.2,3.2-8.3,3.2-11.5,0C71.4,16.8,70.5,14.8,70.5,12.7
	L70.5,12.7z M81.3,11.4c-0.3-1.9-1.4-3.3-3.2-3.3s-3,1.3-3.3,3.3H81.3z M87.8,5.6v14.1c0,0.3,0.3,0.6,0.6,0.6l0,0h3.1
	c0.3,0,0.6-0.3,0.6-0.6c0,0,0,0,0,0v-7.9c0-2.1,1.3-3.6,3-3.6S97.5,9,97.5,11v8.7c0,0.3,0.3,0.6,0.6,0.6l0,0h3.1
	c0.3,0,0.6-0.3,0.6-0.6c0,0,0,0,0,0v-9.3c0-3.5-1.9-5.7-5.2-5.7c-1.8,0-3.5,0.9-4.5,2.5V5.6c0-0.3-0.3-0.6-0.6-0.6h-3.1
	C88.1,5,87.8,5.2,87.8,5.6L87.8,5.6z M110.9,20.6c1.1,0,2.1-0.2,3.1-0.7c0.2-0.1,0.3-0.3,0.3-0.5v-2.2c0-0.3-0.3-0.6-0.6-0.6
	c-0.1,0-0.1,0-0.2,0c-0.4,0.1-0.9,0.2-1.3,0.2c-1,0-1.4-0.5-1.4-1.5V8.7h3c0.3,0,0.6-0.3,0.6-0.6l0,0V5.6c0-0.3-0.3-0.6-0.6-0.6l0,0
	h-3V1.6c0-0.3-0.3-0.6-0.6-0.6l0,0H107c-0.3,0-0.6,0.3-0.6,0.6c0,0,0,0,0,0V5h-1.6c-0.3,0-0.6,0.3-0.6,0.6v0v2.5
	c0,0.3,0.3,0.6,0.6,0.6l0,0h1.6v7.3C106.4,19.5,108.2,20.5,110.9,20.6L110.9,20.6z M10.3,0C4.6,0,0,4.6,0,10.3s4.6,10.3,10.3,10.3
	S20.6,16,20.6,10.3l0,0C20.6,4.6,16,0,10.3,0z M16.8,11.8c0,0.2-0.2,0.4-0.5,0.4l0,0h-4.1v4.1c0,0.2-0.2,0.5-0.4,0.5c0,0,0,0,0,0
	H8.9c-0.2,0-0.4-0.2-0.4-0.5l0,0v-4.1H4.3c-0.2,0-0.5-0.2-0.5-0.4V8.9c0-0.2,0.2-0.4,0.5-0.4h4.1V4.3c0-0.2,0.2-0.5,0.4-0.5h2.9
	c0.2,0,0.4,0.2,0.4,0.5v4.1h4.1c0.2,0,0.5,0.2,0.5,0.4c0,0,0,0,0,0L16.8,11.8z M69.3,5h-3.2c-0.3,0-0.5,0.2-0.6,0.4l-3.1,9.9
	l-3.2-9.9C59.1,5.2,58.9,5,58.6,5h-3.5c-0.3,0-0.6,0.3-0.6,0.6c0,0.1,0,0.2,0,0.2L60.1,20c0.3,0.6-0.3,1.4-1.2,1.4
	c-0.7,0-1.3-0.1-2-0.2c-0.3-0.1-0.7,0.1-0.8,0.4c0,0.1,0,0.1,0,0.2v2.2c0,0.2,0.1,0.4,0.3,0.5c1,0.4,2.1,0.6,3.2,0.6
	c2.7,0,3.6-1.7,4.8-4.3l5.6-14.9C70,5.5,69.8,5.1,69.5,5C69.5,5,69.4,5,69.3,5z M119,4.3h-0.5V1.6h-0.9V1.1h2.4v0.5H119V4.3z
	 M121.6,4.3l-0.9-2.5l0,0v0.6v1.9h-0.5V1.1h0.8l0.9,2.5l0.9-2.5h0.8v3.2H123V2.5V1.9l0,0l-0.9,2.5H121.6z"/>
</svg>
